<svg width="352" height="352" viewBox="0 0 352 352" fill="none" xmlns="http://www.w3.org/2000/svg">
<circle cx="176.095" cy="175.69" r="175.446" fill="#2F5061"/>
<path d="M54.8036 211.066C53.6964 209.014 54.5534 206.454 56.6724 205.483L280.52 102.87C283.072 101.7 286.087 102.86 287.197 105.439L290.149 112.301C291.251 114.864 290.043 117.834 287.464 118.899L59.8929 212.878C57.9827 213.667 55.7852 212.884 54.8036 211.066Z" fill="#F4EAE6"/>
<path d="M66.1273 179.411H131.022V235.643C131.022 242.27 125.649 247.643 119.022 247.643H78.1273C71.4999 247.643 66.1273 242.27 66.1273 235.643V179.411Z" fill="#2F5061" stroke="#F4EAE6" stroke-width="6"/>
<path d="M131.022 176.411C131.022 179.895 128.284 183.768 122.242 186.948C116.339 190.055 107.976 192.067 98.5746 192.067C89.1729 192.067 80.8101 190.055 74.9068 186.948C68.8651 183.768 66.1273 179.895 66.1273 176.411C66.1273 172.927 68.8651 169.053 74.9068 165.873C80.8101 162.766 89.1729 160.754 98.5746 160.754C107.976 160.754 116.339 162.766 122.242 165.873C128.284 169.053 131.022 172.927 131.022 176.411Z" fill="#2F5061" stroke="#F4EAE6" stroke-width="6"/>
<ellipse cx="98.5746" cy="176.411" rx="12.4346" ry="5.57478" fill="#F4EAE6"/>
<path d="M53.4204 227.83C52.6188 225.641 53.8341 223.23 56.0705 222.573L292.321 153.124C295.014 152.333 297.832 153.913 298.56 156.625L300.497 163.839C301.221 166.534 299.599 169.299 296.894 169.983L58.1971 230.353C56.1935 230.86 54.131 229.77 53.4204 227.83Z" fill="#F4EAE6"/>
</svg>
